HIERARCHY
ROOT Hips
{
	OFFSET 0.000000 1.471914 24.280096
	CHANNELS 6 Xposition Yposition Zposition Xrotation Yrotation Zrotation
	JOINT Spine
	{
		OFFSET 0.000000 0.900110 1.860670
		CHANNELS 6 Xposition Yposition Zposition Xrotation Yrotation Zrotation
		JOINT Spine1
		{
			OFFSET 0.000000 0.400320 2.270309
			CHANNELS 6 Xposition Yposition Zposition Xrotation Yrotation Zrotation
			JOINT Spine2
			{
				OFFSET 0.000000 0.200920 2.296560
				CHANNELS 6 Xposition Yposition Zposition Xrotation Yrotation Zrotation
				JOINT Spine3
				{
					OFFSET 0.000000 0.000000 2.305330
					CHANNELS 6 Xposition Yposition Zposition Xrotation Yrotation Zrotation
					JOINT Neck
					{
						OFFSET 0.000000 -0.864490 6.051487
						CHANNELS 6 Xposition Yposition Zposition Xrotation Yrotation Zrotation
						JOINT Head
						{
							OFFSET 0.000000 -0.550429 3.121674
							CHANNELS 6 Xposition Yposition Zposition Xrotation Yrotation Zrotation
							End Site
							{
								OFFSET 0.000000 0.000000 3.731750
							}
						}
					}
					JOINT RightShoulder
					{
						OFFSET -0.788280 -1.313800 4.256718
						CHANNELS 6 Xposition Yposition Zposition Xrotation Yrotation Zrotation
						JOINT RightArm
						{
							OFFSET -3.915130 0.000000 0.000000
							CHANNELS 6 Xposition Yposition Zposition Xrotation Yrotation Zrotation
							JOINT RightForeArm
							{
								OFFSET -6.914910 0.000000 0.000000
								CHANNELS 6 Xposition Yposition Zposition Xrotation Yrotation Zrotation
								JOINT RightHand
								{
									OFFSET -6.096219 0.000000 0.000000
									CHANNELS 6 Xposition Yposition Zposition Xrotation Yrotation Zrotation
									JOINT RightHandEnd
									{
										OFFSET -1.749950 0.000000 0.000000
										CHANNELS 6 Xposition Yposition Zposition Xrotation Yrotation Zrotation
										End Site
										{
											OFFSET -1.749950 0.000000 0.000000
										}
									}
									JOINT RightHandThumb1
									{
										OFFSET -0.699980 -1.166630 -0.466648
										CHANNELS 6 Xposition Yposition Zposition Xrotation Yrotation Zrotation
										End Site
										{
											OFFSET -1.690319 -0.452920 0.000000
										}
									}
								}
							}
						}
					}
					JOINT LeftShoulder
					{
						OFFSET 0.788280 -1.313800 4.256718
						CHANNELS 6 Xposition Yposition Zposition Xrotation Yrotation Zrotation
						JOINT LeftArm
						{
							OFFSET 3.915130 0.000000 0.000000
							CHANNELS 6 Xposition Yposition Zposition Xrotation Yrotation Zrotation
							JOINT LeftForeArm
							{
								OFFSET 6.914910 0.000000 0.000000
								CHANNELS 6 Xposition Yposition Zposition Xrotation Yrotation Zrotation
								JOINT LeftHand
								{
									OFFSET 6.096219 0.000000 0.000000
									CHANNELS 6 Xposition Yposition Zposition Xrotation Yrotation Zrotation
									JOINT LeftHandEnd
									{
										OFFSET 1.749950 0.000000 0.000000
										CHANNELS 6 Xposition Yposition Zposition Xrotation Yrotation Zrotation
										End Site
										{
											OFFSET 1.749950 0.000000 0.000000
										}
									}
									JOINT LeftHandThumb1
									{
										OFFSET 0.699980 -1.166630 -0.466648
										CHANNELS 6 Xposition Yposition Zposition Xrotation Yrotation Zrotation
										End Site
										{
											OFFSET 1.690319 -0.452920 0.000000
										}
									}
								}
							}
						}
					}
				}
			}
		}
	}
	JOINT RightUpLeg
	{
		OFFSET -2.338570 -0.252550 -0.551512
		CHANNELS 6 Xposition Yposition Zposition Xrotation Yrotation Zrotation
		JOINT RightLeg
		{
			OFFSET 0.000000 0.000000 -10.744959
			CHANNELS 6 Xposition Yposition Zposition Xrotation Yrotation Zrotation
			JOINT RightFoot
			{
				OFFSET 0.000000 -0.000001 -10.930849
				CHANNELS 6 Xposition Yposition Zposition Xrotation Yrotation Zrotation
				JOINT RightToeBase
				{
					OFFSET 0.000000 -4.087269 -1.487650
					CHANNELS 6 Xposition Yposition Zposition Xrotation Yrotation Zrotation
					End Site
					{
						OFFSET 0.000000 -1.891870 0.000000
					}
				}
			}
		}
	}
	JOINT LeftUpLeg
	{
		OFFSET 2.338570 -0.252550 -0.551512
		CHANNELS 6 Xposition Yposition Zposition Xrotation Yrotation Zrotation
		JOINT LeftLeg
		{
			OFFSET 0.000000 0.000000 -10.744959
			CHANNELS 6 Xposition Yposition Zposition Xrotation Yrotation Zrotation
			JOINT LeftFoot
			{
				OFFSET 0.000000 -0.000001 -10.930849
				CHANNELS 6 Xposition Yposition Zposition Xrotation Yrotation Zrotation
				JOINT LeftToeBase
				{
					OFFSET 0.000000 -4.087269 -1.487650
					CHANNELS 6 Xposition Yposition Zposition Xrotation Yrotation Zrotation
					End Site
					{
						OFFSET 0.000000 -1.891870 0.000000
					}
				}
			}
		}
	}
}
MOTION
Frames: 4
Frame Time: 0.041667
-0.000032 26.539925 40.351624 -14.525132 6.864235 -14.478183 -0.000017 0.900093 1.860692 30.512361 -5.691390 -1.061410 0.000001 0.400278 2.270323 -0.000003 -0.000002 0.000006 0.000019 0.200881 2.296537 0.000001 -0.000000 0.000001 0.000026 -0.000013 2.305315 -0.000020 0.000003 -1.313740 -0.000002 -0.864477 6.051458 -4.175041 -0.162247 -176.583900 0.000015 -0.550442 3.121723 0.000001 0.000001 -0.000005 -0.788282 -1.313739 4.256762 -137.916696 60.758460 -43.786867 -3.915085 -0.000005 -0.000042 0.000000 -0.000002 -0.000002 -6.914875 -0.000006 -0.000003 0.000009 0.000001 -20.913189 -6.096198 -0.000004 0.000003 -0.000015 0.000047 -0.000087 -1.749914 -0.000015 0.000009 -0.000001 0.000004 0.000001 -0.700004 -1.166626 -0.466660 0.000006 0.000001 0.000001 0.788264 -1.313788 4.256726 -121.933370 -56.470887 57.798461 3.915174 0.000020 -0.000019 0.000001 -0.000000 0.000004 6.914912 -0.000015 -0.000011 0.000008 0.000003 26.696920 6.096204 0.000052 0.000000 0.000047 -0.000085 0.000049 1.749923 0.000010 0.000029 0.000001 -0.000007 0.000003 0.699951 -1.166609 -0.466647 0.000024 -0.000004 -0.000021 -2.338573 -0.252542 -0.551505 23.657661 -4.731953 -0.834255 0.000016 -0.000017 -10.744970 6.710739 4.832082 -0.772111 -0.000021 0.000057 -10.930837 -0.000003 -0.000002 0.000001 0.000002 -4.087257 -1.487645 0.000004 0.000002 -0.000001 2.338573 -0.252534 -0.551462 27.126286 -2.149687 -0.951122 -0.000007 -0.000023 -10.744925 3.170058 0.775023 -0.221676 -0.000012 0.000010 -10.930862 0.000019 -0.000001 -0.000004 -0.000015 -4.087234 -1.487656 -0.000004 -0.000000 0.000000 
-0.000029 26.539919 40.351593 -14.623725 6.916417 -13.982164 -0.000016 0.900095 1.860698 31.056556 -5.745303 -0.973627 -0.000000 0.400278 2.270317 -0.000006 -0.000001 0.000008 0.000019 0.200880 2.296540 -0.000000 -0.000001 -0.000001 0.000026 -0.000014 2.305311 -0.000019 0.000002 -1.150757 -0.000002 -0.864471 6.051466 -4.270912 -0.938268 -176.386248 0.000016 -0.550444 3.121727 -0.000001 0.000001 -0.000004 -0.788278 -1.313730 4.256765 -141.537366 60.273086 -40.982644 -3.915081 -0.000003 -0.000042 -0.000000 -0.000002 -0.000002 -6.914877 -0.000010 -0.000010 0.000009 0.000001 -21.471041 -6.096201 -0.000006 0.000005 -0.000015 0.000052 -0.000092 -1.749906 -0.000019 0.000008 -0.000007 0.000001 0.000000 -0.700005 -1.166626 -0.466661 -0.000004 -0.000000 -0.000001 0.788266 -1.313783 4.256729 -123.634607 -56.249377 56.581055 3.915175 0.000016 -0.000019 -0.000000 0.000001 0.000002 6.914901 -0.000015 -0.000011 0.000015 0.000006 27.118173 6.096200 0.000052 -0.000001 0.000048 -0.000084 0.000048 1.749917 0.000008 0.000025 0.000003 -0.000004 0.000000 0.699946 -1.166613 -0.466643 0.000025 -0.000005 -0.000022 -2.338572 -0.252538 -0.551504 23.772289 -4.665855 -0.756199 0.000016 -0.000016 -10.744971 6.891648 4.260480 -0.762970 -0.000020 0.000052 -10.930836 -0.000003 -0.000002 0.000002 -0.000001 -4.087258 -1.487642 -0.000001 0.000002 -0.000003 2.338574 -0.252533 -0.551457 26.909765 -2.878906 -0.853428 -0.000007 -0.000024 -10.744922 3.417226 1.451169 -0.271852 -0.000011 0.000013 -10.930864 0.000024 -0.000002 -0.000006 -0.000015 -4.087241 -1.487657 -0.000002 -0.000000 -0.000001 
-0.000027 26.539915 40.351570 -14.917254 6.917042 -14.262646 -0.000016 0.900093 1.860699 31.279418 -5.360691 -1.096462 0.000000 0.400275 2.270310 -0.000003 -0.000001 0.000007 0.000019 0.200878 2.296534 0.000001 0.000000 -0.000000 0.000026 -0.000018 2.305318 -0.000020 0.000001 -0.838263 -0.000003 -0.864474 6.051464 -4.130842 -1.509606 -176.107699 0.000016 -0.550439 3.121723 0.000001 0.000000 -0.000003 -0.788278 -1.313736 4.256766 -148.332530 60.850258 -34.809164 -3.915077 -0.000006 -0.000046 0.000000 -0.000002 0.000001 -6.914871 -0.000005 0.000000 0.000009 0.000002 -21.336138 -6.096201 -0.000008 -0.000000 -0.000013 0.000050 -0.000092 -1.749910 -0.000015 0.000008 -0.000003 0.000000 -0.000000 -0.700002 -1.166628 -0.466659 0.000001 -0.000004 -0.000002 0.788265 -1.313785 4.256732 -126.722918 -57.458768 53.461257 3.915168 0.000013 -0.000019 -0.000002 -0.000001 0.000002 6.914902 -0.000019 -0.000012 0.000014 0.000006 26.681874 6.096200 0.000052 -0.000005 0.000048 -0.000082 0.000047 1.749916 0.000011 0.000027 -0.000004 -0.000005 0.000002 0.699947 -1.166611 -0.466643 0.000024 -0.000001 -0.000021 -2.338572 -0.252542 -0.551501 24.216024 -4.516605 -0.862026 0.000016 -0.000015 -10.744975 6.959358 4.782223 -0.776144 -0.000021 0.000053 -10.930837 0.000000 -0.000003 0.000004 0.000000 -4.087262 -1.487646 0.000004 0.000002 -0.000002 2.338573 -0.252536 -0.551454 26.976869 -2.973421 -0.957297 -0.000007 -0.000027 -10.744923 3.489209 1.267244 -0.295487 -0.000011 0.000009 -10.930861 0.000020 -0.000001 -0.000007 -0.000013 -4.087236 -1.487652 -0.000008 -0.000000 -0.000002 
-0.000024 26.539913 40.351562 -15.203805 6.873785 -14.009313 -0.000016 0.900091 1.860695 31.289097 -5.070706 -1.096203 -0.000000 0.400278 2.270315 -0.000005 -0.000001 0.000008 0.000018 0.200875 2.296535 0.000000 0.000000 0.000001 0.000026 -0.000019 2.305318 -0.000017 0.000002 -0.685484 -0.000004 -0.864477 6.051461 -3.627522 -2.449413 -176.040640 0.000015 -0.550439 3.121727 -0.000000 -0.000000 -0.000003 -0.788277 -1.313741 4.256765 -154.593013 60.925492 -29.118903 -3.915078 0.000001 -0.000042 -0.000000 0.000000 0.000001 -6.914872 -0.000004 -0.000010 0.000008 0.000001 -21.063981 -6.096200 -0.000004 0.000003 -0.000015 0.000048 -0.000093 -1.749906 -0.000019 0.000011 -0.000004 -0.000002 0.000003 -0.699998 -1.166628 -0.466660 0.000001 -0.000002 -0.000001 0.788266 -1.313789 4.256731 -130.705068 -58.831527 49.426609 3.915169 0.000014 -0.000019 -0.000001 0.000001 0.000001 6.914896 -0.000017 -0.000007 0.000013 0.000003 25.953307 6.096203 0.000052 -0.000006 0.000048 -0.000087 0.000048 1.749919 0.000013 0.000024 0.000005 -0.000004 0.000000 0.699952 -1.166610 -0.466647 0.000029 -0.000003 -0.000025 -2.338573 -0.252541 -0.551501 24.671760 -4.496047 -0.877330 0.000017 -0.000018 -10.744968 7.386895 4.823781 -0.820106 -0.000021 0.000054 -10.930835 -0.000003 -0.000003 0.000002 0.000002 -4.087260 -1.487646 0.000008 0.000002 0.000000 2.338574 -0.252536 -0.551459 26.824089 -3.496238 -0.953084 -0.000006 -0.000026 -10.744921 4.251640 1.753502 -0.398803 -0.000010 0.000013 -10.930863 0.000024 -0.000000 -0.000007 -0.000015 -4.087229 -1.487652 0.000000 0.000000 -0.000001 
